<svg id="Result" xmlns="http://www.w3.org/2000/svg" xmlns:xlink="http://www.w3.org/1999/xlink" viewBox="0 0 949.64 848.78"><defs><style>.cls-1,.cls-2,.cls-3,.cls-4,.cls-5{stroke:#2e388e;stroke-miterlimit:10;}.cls-1{fill:url(#linear-gradient);}.cls-2{fill:url(#linear-gradient-2);}.cls-3{fill:url(#linear-gradient-3);}.cls-4{fill:url(#radial-gradient);}.cls-5{fill:url(#linear-gradient-4);}</style><linearGradient id="linear-gradient" x1="931.59" y1="801.88" x2="1146.11" y2="728.07" gradientUnits="userSpaceOnUse"><stop offset="0.2" stop-color="#2e368f"/><stop offset="0.28" stop-color="#383e94"/><stop offset="0.42" stop-color="#5355a1"/><stop offset="0.57" stop-color="#7672b1"/></linearGradient><linearGradient id="linear-gradient-2" x1="772.4" y1="613" x2="918.75" y2="449.66" gradientUnits="userSpaceOnUse"><stop offset="0.03" stop-color="#2e368f"/><stop offset="0.18" stop-color="#323991"/><stop offset="0.32" stop-color="#3d4396"/><stop offset="0.46" stop-color="#50539f"/><stop offset="0.59" stop-color="#6b69ac"/><stop offset="0.64" stop-color="#7672b1"/></linearGradient><linearGradient id="linear-gradient-3" x1="638.97" y1="1051.71" x2="1149.12" y2="1165.42" gradientUnits="userSpaceOnUse"><stop offset="0.52" stop-color="#2e368f"/><stop offset="0.88" stop-color="#7672b1"/></linearGradient><radialGradient id="radial-gradient" cx="719.94" cy="624.08" fx="518.1063018290404" fy="374.21519302697135" r="321.2" gradientUnits="userSpaceOnUse"><stop offset="0.34" stop-color="#52539f"/><stop offset="0.59" stop-color="#5455a0"/><stop offset="0.72" stop-color="#5c5ca4"/><stop offset="0.82" stop-color="#6969ac"/><stop offset="0.91" stop-color="#7c7bb6"/><stop offset="0.98" stop-color="#9591c3"/><stop offset="1" stop-color="#9b97c6"/></radialGradient><linearGradient id="linear-gradient-4" x1="975.11" y1="823.47" x2="975.11" y2="971.1" gradientUnits="userSpaceOnUse"><stop offset="0.26" stop-color="#9b97c6"/><stop offset="0.42" stop-color="#9793c4"/><stop offset="0.6" stop-color="#8987bd"/><stop offset="0.79" stop-color="#7472b1"/><stop offset="0.98" stop-color="#5556a1"/><stop offset="1" stop-color="#52539f"/></linearGradient></defs><title>fit-logo-short-version</title><path class="cls-1" d="M1065,836l-12.8,5.49-53,22.72A387.58,387.58,0,0,0,944,713.32l33.5-12.11,38.13-13.79A387,387,0,0,1,1065,836Z" transform="translate(-544.81 -491.25)"/><path class="cls-2" d="M989.48,648q-24.26,7.51-48.51,15-13.65,4.23-27.28,8.44a391.58,391.58,0,0,0-71.84-67.37q-14.34-10.42-29.64-19.51a385.7,385.7,0,0,0-62.77-30.07c-.3-.12-.59-.24-.9-.34-.94-.37-1.89-.72-2.86-1l-.37-.14a389,389,0,0,0-132.18-23q-7.54,0-15,.29A149.43,149.43,0,0,1,697,493.08q6.79,0,13.45.59C824.4,503.13,924.46,561.62,989.48,648Z" transform="translate(-544.81 -491.25)"/><path class="cls-3" d="M1068.44,886.36q-.23-6.45-.55-12.8l-.26.14-6.83,3.45-4.36,2.21h0q-26.76,13.5-53.5,27,.24,6.78.24,13.63a388.82,388.82,0,0,1-30.4,151.23,371.42,371.42,0,0,1-132.9,164.25,336.91,336.91,0,0,1-45.06,19c-9.25,3.13-54.56,17.89-117.12,17.89a389,389,0,0,1-131.4-22.7A241.09,241.09,0,0,0,616.88,1310a238.26,238.26,0,0,0,92.6,29.48,387.92,387.92,0,0,0,202-76.5c89.7-67.25,149.47-172.25,155.73-291.44v0C1068.89,945.13,1069.5,916.63,1068.44,886.36Z" transform="translate(-544.81 -491.25)"/><path class="cls-4" d="M1283,557.18h0L989.48,648q-24.26,7.51-48.51,15-13.65,4.23-27.28,8.44L837.8,694.9q-46.12,14.28-92.23,28.53h0l0,0a90,90,0,0,1-74.93-162.67h0A90.21,90.21,0,0,1,745.31,553a389,389,0,0,0-132.18-23q-7.54,0-15,.29A150.05,150.05,0,0,0,749.54,783.64L944,713.32l33.5-12.11,38.13-13.79,268.76-97.21,208.27-97.86.05,0Q1387.85,524.73,1283,557.18Z" transform="translate(-544.81 -491.25)"/><path class="cls-5" d="M1284.35,741.91l-54.51,49.85q-81,40.9-161.95,81.8l-.26.14-6.83,3.45-4.36,2.21h0q-26.76,13.5-53.5,27l-83,41.92-196.42,99.23-.89.45-42.39-20.14L665.86,1021l17.53-14.87L699,992.89l.12-.06,185.37-79.47q57.33-24.6,114.69-49.18l53-22.72L1065,836Z" transform="translate(-544.81 -491.25)"/></svg>
